<?xml version="1.0" encoding="utf-8"?>
<!-- Generator: Adobe Illustrator 24.0.2, SVG Export Plug-In . SVG Version: 6.00 Build 0)  -->
<svg version="1.1" id="레이어_1" xmlns="http://www.w3.org/2000/svg" xmlns:xlink="http://www.w3.org/1999/xlink" x="0px"
	 y="0px" viewBox="0 0 400 400" style="enable-background:new 0 0 400 400;" xml:space="preserve">
<style type="text/css">
	.st0{
		fill:#FFFFFF;
		stroke:#faaa;
		stroke-miterlimit:10;
		stroke-dashArray:900px;
		stroke-dashOffset:900px;
		animation : line 5s infinite;

		}
	.st0{fill:none;stroke:#000000;}
		@keyframes line{
		100%{stroke-dashOffset:1800px;}
	}
</style>
<path class="st0" d="M156.17,150.54c2.04,0,3.91-0.83,5.63-2.5c1.72-1.67,2.57-3.48,2.57-5.43c0-2.47-1.25-3.71-3.75-3.71
	c-1.92,0-3.74,0.86-5.45,2.59c-1.72,1.72-2.57,3.5-2.57,5.34C152.59,149.31,153.78,150.54,156.17,150.54z"/>
<path class="st0" d="M278.64,177.56c-0.29,0-0.61,0.29-0.96,0.86c-5.3,7.71-10.51,14.2-15.64,19.46c-5.13,5.26-8.86,7.9-11.19,7.9
	c-2.27,0-3.41-1.35-3.41-4.05c0-2.81,2.67-8.65,8.03-17.49l15.45-25.25c-2.5,0.4-4.54,0.6-6.11,0.6c-1.34,0-2.88-0.2-4.63-0.6
	l-4.45,8.36c0.46-1.61,0.7-2.9,0.7-3.88c0-3.45-1.8-5.17-5.41-5.17c-4.25,0-9.83,1.9-16.75,5.69c-10.14,5.47-17,11.46-20.62,17.98
	l-1.51,2.07c-10.49,14.5-18.06,21.75-22.72,21.75c-2.39,0-3.58-1.23-3.58-3.71c0-3.04,3.32-9.91,9.95-20.6l13.96-22.49
	c-2.68,0.4-4.74,0.6-6.2,0.6c-1.22,0-2.74-0.2-4.54-0.6l-8.55,14.3c-12.97,21.66-22.4,32.49-28.27,32.49
	c-2.21,0-3.32-1.29-3.32-3.88c0-2.64,1.05-5.69,3.14-9.13l20.77-33.78c-2.85,0.4-4.83,0.6-5.93,0.6c-1.11,0-2.65-0.2-4.63-0.6
	l-11.46,19.03c-0.33,0.28-0.68,0.72-1.06,1.35c-5.52,7.23-10.65,12.91-15.38,17.04s-10.85,8.26-18.35,12.39l8.03-14.48
	c9.42-16.08,16.46-27.86,21.12-35.33c-2.68,0.4-4.83,0.6-6.46,0.6c-1.11,0-2.47-0.2-4.1-0.6c-6.69,11.43-12.16,20.8-16.4,28.09
	l-15.27,26.8l-1.22,0.6c-11,4.65-19.14,8.47-24.43,11.46c-3.43,1.95-7.62,4.83-12.57,8.62c-9.02,6.95-13.53,13.73-13.53,20.34
	c0,5.4,2.97,8.1,8.9,8.1c6.63,0,14.6-3.76,23.91-11.29c8.78-7.12,17.69-18.3,26.7-33.52l4.45-7.67
	c11.47-6.37,20.53-13.22,27.17-20.57c1.51-1.66,2.84-3.15,4-4.47c-2.57,4.26-3.85,8.04-3.85,11.34c0,2.87,0.87,5.3,2.62,7.28
	c1.75,1.98,3.9,2.97,6.46,2.97c2.44,0,5.03-1.29,7.77-3.88c2.5-2.3,6.43-6.84,11.78-13.62l1.75-2.33c-2.27,4.02-3.4,7.15-3.4,9.39
	c0,2.87,0.89,5.33,2.66,7.37c1.78,2.04,3.95,3.06,6.51,3.06c4.08,0,9.61-4.09,16.6-12.26c2.45-2.85,4.53-5.33,6.27-7.47
	c-0.53,1.94-0.8,3.92-0.8,5.94c0,3.96,1.05,7.25,3.14,9.87c2.09,2.61,4.68,3.92,7.77,3.92c2.91,0,5.9-1.41,8.99-4.22
	c3.08-2.81,7.53-8.24,13.35-16.29c-1.86,3.62-2.79,6.98-2.79,10.08c0,2.99,0.84,5.47,2.53,7.45c1.69,1.98,3.87,2.97,6.55,2.97
	c3.96,0,9.38-4.09,16.25-12.26c8.5-9.95,12.75-15.53,12.75-16.74C279.16,177.73,278.99,177.56,278.64,177.56z M111.14,217.24
	c-10.47,17.29-18.24,28.75-23.3,34.38c-5.99,6.72-12.04,10.08-18.15,10.08c-2.09,0-3.84-0.62-5.24-1.85
	c-1.4-1.24-2.09-2.77-2.09-4.61c0-6.84,6.08-14.39,18.24-22.66c4.48-3.05,15.01-8.73,31.59-17.06L111.14,217.24z M242.99,186.05
	c-9.89,13.16-16.84,19.73-20.86,19.73c-3.38,0-5.06-1.87-5.06-5.6c0-6.38,4.35-14.74,13.05-25.08c8.7-10.34,15.72-15.51,21.07-15.51
	c2.62,0,3.93,1.41,3.93,4.22C255.12,167.84,251.08,175.25,242.99,186.05z"/>
</svg>
