<?xml version="1.0" encoding="utf-8"?>
<!-- Generator: Adobe Illustrator 24.0.2, SVG Export Plug-In . SVG Version: 6.00 Build 0)  -->
<svg version="1.1" id="레이어_1" xmlns="http://www.w3.org/2000/svg" xmlns:xlink="http://www.w3.org/1999/xlink" x="0px"
	 y="0px" viewBox="0 0 600 200" style="enable-background:new 0 0 600 200;" xml:space="preserve">
<style>
	<!-- path{fill:#f22;} -->
	.text{
	fill:#333;

	animation:updown 1s infinite;
	}
	<!-- @keyframes updown{
		
		80%{transform:translateY(-10px);}
	} -->
	.text:nth-child(1){animation-delay:.2s;}
	.text:nth-child(2){animation-delay:.4s;}

	.text:nth-child(3){animation-delay:.6s;}

	.text:nth-child(4){animation-delay:.8s;}

	 .text:nth-child(5){animation-delay:1.0s;}

	.text:nth-child(6){animation-delay:1.1s;}

	.text:nth-child(7){animation-delay:1.2s;}

	.text:nth-child(8){animation-delay:1.3s;}

	.text:nth-child(9){animation-delay:1.4s;} 


</style>
<g>
<path class="text" d="M115.78,76.07h15.79c6.7,0,11.47,0.93,14.31,2.78c3.61,2.32,5.41,5.54,5.41,9.67c0,2.51-0.69,4.69-2.07,6.54
	c-1.38,1.85-3.32,3.19-5.8,4.01c-2.48,0.82-6.43,1.23-11.85,1.23h-4.32v17.02l4.29,3.87h-16.35l4.89-4.11v-14.1
	c-0.28-0.02-0.48-0.04-0.6-0.04c-1.69,0-3.3,0.36-4.85,1.09l-0.32-0.63c1.57-0.89,2.98-1.34,4.22-1.34h1.27l0.28-0.04v-1.72
	c-0.54-0.07-0.9-0.11-1.09-0.11c-2.51,0-4.51,0.61-6.01,1.83l-0.35-0.53c1.43-2.62,3.73-3.94,6.89-3.94h0.56V80.32L115.78,76.07z
	 M149.49,79.83c1.43,0.7,2.58,1.94,3.45,3.71c0.87,1.77,1.3,3.78,1.3,6.03c0,5.09-1.97,8.74-5.91,10.97
	c-2.98,1.69-8.06,2.53-15.26,2.53c-1.2,0-2.2-0.02-3.02-0.07v14.52l5.52,6.54h-17.61l-0.95-0.95h16.56l-4.5-5.2v-15.86
	c2.04,0.12,4.21,0.18,6.5,0.18c6.05,0,10.53-1.07,13.46-3.2c2.93-2.13,4.39-5.4,4.39-9.81c0-1.83-0.28-3.42-0.84-4.76
	C152.02,83.11,150.99,81.56,149.49,79.83z M127.24,79.69V97.3h0.46l0.91,0.04c0.09,0,0.25-0.01,0.46-0.04V81.62h3.87
	c3,0,5.12,0.26,6.35,0.79s2.28,1.62,3.15,3.29c-0.87-1.2-1.95-2.03-3.25-2.51c-1.3-0.48-3.13-0.72-5.5-0.72h-3.62V97.3
	c4.64,0,8.04-0.68,10.21-2.04c2.17-1.36,3.25-3.49,3.25-6.4c0-3.26-0.97-5.63-2.9-7.1s-5.04-2.21-9.33-2.21
	C130.18,79.55,128.83,79.6,127.24,79.69z"/>
<path class="text" d="M176.1,75.61c5.7,0,10.25,2.16,13.66,6.47c3.41,4.31,5.12,10.08,5.12,17.3c0,6.82-1.68,12.26-5.04,16.31
	c-3.36,4.05-7.88,6.08-13.55,6.08c-4.48,0-8.46-1.43-11.95-4.29c-5.13-4.22-7.7-10.46-7.7-18.74c0-7.08,1.76-12.7,5.27-16.88
	C165.42,77.7,170.15,75.61,176.1,75.61z M176.1,78.63c-7.92,0-11.88,6.96-11.88,20.88c0,12.87,3.9,19.3,11.71,19.3
	c3.63,0,6.4-1.71,8.3-5.12s2.85-8.4,2.85-14.96c0-7.43-0.91-12.61-2.74-15.54C182.41,80.16,179.67,78.63,176.1,78.63z M187.32,77.4
	c3.35,1.62,6,4.38,7.95,8.3c1.95,3.91,2.92,8.44,2.92,13.57c0,7.55-1.92,13.64-5.75,18.28s-8.87,6.96-15.1,6.96
	c-3.98,0-7.71-1.35-11.18-4.04v-0.18c2.91,2.13,6.55,3.2,10.93,3.2c5.88,0,10.71-2.21,14.48-6.64c3.77-4.43,5.66-10.09,5.66-16.98
	c0-5.13-0.86-9.62-2.58-13.46c-1.72-3.84-4.17-6.71-7.33-8.61V77.4z M183.63,83.91l-0.6-0.35c-2.25-1.24-4.31-1.86-6.19-1.86
	c-6.16,0-9.25,6.06-9.25,18.18c0,8.86,1.91,14.73,5.73,17.61l-0.32,0.35c-2.34-1.66-4.01-3.85-5.01-6.56
	c-1-2.71-1.49-6.37-1.49-10.99c0-13.01,3.42-19.51,10.27-19.51C179.89,80.78,182.17,81.82,183.63,83.91z"/>
<path class="text" d="M202.96,80.29c5.55-3.21,11.53-4.82,17.93-4.82c4.97,0,9.06,1.08,12.29,3.23c3.22,2.16,4.83,4.9,4.83,8.23
	c0,2.72-1.05,5.13-3.16,7.22c-2.11,2.1-4.99,3.62-8.65,4.55c1.62,4.45,3.81,8.79,6.59,13.01s5.56,7.45,8.35,9.7l-0.53,0.18
	c-3.49,1.2-6.91,2.88-10.27,5.06l-0.53,0.35l-0.18-1.13c-1.5-9.07-3.6-16.76-6.29-23.06l-0.14-0.35c-1.62,0.75-3.79,1.35-6.5,1.79
	l-0.28,0.04v13.15l6.19,6.61h-18.18l-0.56-0.95h16.73l-5.1-5.41v-14.17l0.74-0.11c2.67-0.28,4.91-0.81,6.71-1.58
	c-0.14-0.28-0.22-0.46-0.25-0.53l-0.35-1.02c-0.02-0.07-0.08-0.21-0.18-0.42c-1.45,0.42-4.2,0.88-8.23,1.37l-0.39,0.07v15.68
	l4.01,4.18h-15.54l4.57-4.18v-11.81l-0.28,0.04c-1.36,0.3-2.59,0.65-3.69,1.02l-0.28,0.11l-0.32-0.7c1.03-0.4,1.84-0.67,2.43-0.81
	l1.86-0.46l0.28-0.07v-1.83c-1.38,0-3.11,0.3-5.17,0.91l-0.39,0.14c0.05-0.33,0.28-1.09,0.7-2.29c0.05-0.09,0.21-0.62,0.49-1.58
	c0.02-0.07,0.06-0.18,0.11-0.32c1.05,0.07,1.88,0.11,2.46,0.11c0.63,0,1.22-0.04,1.76-0.11v-17.3c-1.08-0.66-2.19-1.21-3.34-1.65
	L202.96,80.29z M213.58,79.37v18.95c0.68,0,1.32-0.06,1.93-0.18v-17.3c1.29-0.35,2.84-0.53,4.64-0.53c4.57,0,7.68,1.5,9.32,4.5
	c-1.73-1.41-3.26-2.37-4.57-2.9c-1.31-0.53-2.88-0.79-4.71-0.79c-1.43,0-2.68,0.14-3.76,0.42v16.59l0.39-0.07
	c4.62-0.84,8.04-2.17,10.28-3.99c2.24-1.82,3.36-4.18,3.36-7.08c0-2.6-1.01-4.75-3.02-6.45c-2.02-1.7-4.56-2.55-7.63-2.55
	C217.34,78,215.27,78.46,213.58,79.37z M230.56,100.47c1.48,4.83,4.09,9.55,7.84,14.17c2.34,2.88,5.31,5.47,8.89,7.77
	c-5.37,1.43-10.41,3.61-15.12,6.54l-0.32,0.21l-0.7-0.56c4.48-2.93,9.25-5.09,14.31-6.47c-6.75-4.5-12.06-11.69-15.93-21.59
	l-0.21-0.6c7.17-2.72,10.76-6.87,10.76-12.45c0-2.3-0.93-4.8-2.78-7.52c2.37,2.16,3.55,4.9,3.55,8.23
	C240.86,93.59,237.43,97.68,230.56,100.47z"/>
<path class="text" d="M286.25,76.07c-0.21,0.4-0.35,0.67-0.42,0.81l-2.39,4.22c-0.82,1.5-1.58,3.38-2.29,5.63l-0.07,0.18l-0.35-0.25l-0.11-0.46
	c-0.68-2.67-1.65-4.52-2.9-5.55c-1.25-1.03-3.17-1.55-5.75-1.55c-1.05,0-2.11,0.05-3.16,0.14h-0.42v38.11l4.15,3.83h-16.07
	l4.92-4.11V82.08l-2.5-0.04c-2.41,0-4.13,0.47-5.15,1.42s-1.62,2.62-1.81,5.01h-0.91c0.26-2.74,0.97-4.65,2.13-5.73
	c1.16-1.08,3.08-1.62,5.75-1.62l2.11,0.04h0.39v-1.72c-1.2-0.14-2.33-0.21-3.41-0.21c-3.02,0-5.2,0.62-6.54,1.85
	s-2.07,3.31-2.21,6.24h-0.42c-1.01-3.26-2.57-6.89-4.68-10.9l-0.21-0.35H286.25z M279.08,83.77c-1.81-1.17-3.91-1.76-6.33-1.76
	c-0.54,0-1.1,0.04-1.69,0.11l0.14,35.33l5.59,6.61h-17.96l-0.81-0.95h16.84l-4.71-5.38V81.1l1.9-0.04c2.27,0,3.88,0.18,4.83,0.54
	C277.83,81.97,278.56,82.69,279.08,83.77z M288.46,78.28c-1.62,2.06-3.32,5.48-5.1,10.27l-0.14,0.35l-0.77-0.67l0.11-0.32
	c1.73-4.85,3.41-8.23,5.03-10.13l0.18-0.21L288.46,78.28z"/>
<path class="text" d="M289.48,76.07h36.49c-1.45,1.92-2.49,3.43-3.11,4.54c-0.62,1.1-1.41,2.87-2.37,5.31l-0.28,0.7
	c-1.55-3.19-3.08-5.25-4.59-6.19c-1.51-0.94-4.06-1.41-7.65-1.41l-2,0.04l-3.41-0.04l-1.3-0.04v16.45h2.14V80.92l1.02-0.04
	c1.45-0.07,3-0.11,4.64-0.11c4.78,0,7.77,1.24,8.96,3.73c-1.15-1.1-2.4-1.85-3.74-2.23c-1.35-0.39-3.43-0.58-6.24-0.58
	c-1.01,0-2.26,0.06-3.76,0.18v13.57h5.31l5.63-5.94v14.73l-5.91-5.84h-8.05v17.72l4.5,4.57H288.5l5.73-4.57v-15.12
	c-1.81,0-3.39,0.68-4.75,2.04l-0.67-0.74c1.36-1.5,3.16-2.25,5.41-2.25v-1.65c-0.49-0.05-0.84-0.07-1.05-0.07
	c-2.18,0-4.07,0.89-5.66,2.67l-0.25-0.56c1.05-3.05,3.38-4.71,6.96-4.99V80.6L289.48,76.07z M311.49,101.35h-7.21v15.05l6.19,7.66
	h-20.36l-0.88-0.95h19.27l-5.1-6.29V100.4h7.07L311.49,101.35z M317.78,90.73v15.19l-0.91-0.53V90.2L317.78,90.73z M328.65,78.21
	c-3.35,3.91-5.46,7.5-6.33,10.76l-0.74-0.49c0.89-3.68,3.04-7.3,6.43-10.86L328.65,78.21z"/>
<path class="text" d="M348.12,75.61c5.7,0,10.25,2.16,13.66,6.47c3.41,4.31,5.12,10.08,5.12,17.3c0,6.82-1.68,12.26-5.04,16.31
	c-3.36,4.05-7.88,6.08-13.55,6.08c-4.48,0-8.46-1.43-11.95-4.29c-5.13-4.22-7.7-10.46-7.7-18.74c0-7.08,1.76-12.7,5.27-16.88
	C337.44,77.7,342.17,75.61,348.12,75.61z M348.12,78.63c-7.92,0-11.88,6.96-11.88,20.88c0,12.87,3.9,19.3,11.71,19.3
	c3.63,0,6.4-1.71,8.3-5.12s2.85-8.4,2.85-14.96c0-7.43-0.91-12.61-2.74-15.54C354.43,80.16,351.69,78.63,348.12,78.63z M359.34,77.4
	c3.35,1.62,6,4.38,7.95,8.3c1.95,3.91,2.92,8.44,2.92,13.57c0,7.55-1.92,13.64-5.75,18.28s-8.87,6.96-15.1,6.96
	c-3.99,0-7.71-1.35-11.18-4.04v-0.18c2.91,2.13,6.55,3.2,10.93,3.2c5.88,0,10.71-2.21,14.48-6.64c3.77-4.43,5.66-10.09,5.66-16.98
	c0-5.13-0.86-9.62-2.58-13.46c-1.72-3.84-4.17-6.71-7.33-8.61V77.4z M355.65,83.91l-0.6-0.35c-2.25-1.24-4.31-1.86-6.19-1.86
	c-6.17,0-9.25,6.06-9.25,18.18c0,8.86,1.91,14.73,5.73,17.61l-0.32,0.35c-2.34-1.66-4.01-3.85-5.01-6.56
	c-1-2.71-1.49-6.37-1.49-10.99c0-13.01,3.42-19.51,10.27-19.51C351.91,80.78,354.19,81.82,355.65,83.91z"/>
<path class="text" d="M373.33,76.07h16.8l-4.96,4.82v37.58h0.28l1.27,0.11h0.32V81.24l3.8-3.83l0.49,0.77l-3.41,3.48v36.91
	c1.05,0.09,2.06,0.14,3.02,0.14c3.73,0,6.54-0.83,8.46-2.48c1.91-1.65,3.19-4.38,3.85-8.17c2.2,6.4,4.46,10.77,6.79,13.11h-36.7
	l4.85-3.97V80.53L373.33,76.07z M413.48,120.89l-1.58,3.16h-36.7l-0.88-0.95h37.2l1.02-2.21c-2.58-3.16-4.64-6.69-6.19-10.58
	l-0.14-0.39l1.13,0.42l0.25,0.6c1.57,3.47,3.45,6.67,5.63,9.6L413.48,120.89z"/>
<path class="text" d="M412.74,76.07h16.66l-4.71,4.78v36.6l4.43,3.73h-16.38l4.89-4.04V80.46L412.74,76.07z M430.99,78.07l-3.59,3.55v35.82
	l5.91,6.61h-18.28l-0.88-0.95h17.09l-4.82-5.31V81.31l3.97-3.94L430.99,78.07z"/>
<path  class="text" d="M454.47,75.61c5.7,0,10.25,2.16,13.66,6.47c3.41,4.31,5.12,10.08,5.12,17.3c0,6.82-1.68,12.26-5.04,16.31
	c-3.36,4.05-7.88,6.08-13.55,6.08c-4.48,0-8.46-1.43-11.95-4.29c-5.13-4.22-7.7-10.46-7.7-18.74c0-7.08,1.76-12.7,5.27-16.88
	C443.78,77.7,448.52,75.61,454.47,75.61z M454.47,78.63c-7.92,0-11.88,6.96-11.88,20.88c0,12.87,3.9,19.3,11.71,19.3
	c3.63,0,6.4-1.71,8.3-5.12s2.85-8.4,2.85-14.96c0-7.43-0.91-12.61-2.74-15.54C460.78,80.16,458.03,78.63,454.47,78.63z M465.69,77.4
	c3.35,1.62,6,4.38,7.95,8.3c1.95,3.91,2.92,8.44,2.92,13.57c0,7.55-1.92,13.64-5.75,18.28s-8.87,6.96-15.1,6.96
	c-3.99,0-7.71-1.35-11.18-4.04v-0.18c2.91,2.13,6.55,3.2,10.93,3.2c5.88,0,10.71-2.21,14.48-6.64c3.77-4.43,5.66-10.09,5.66-16.98
	c0-5.13-0.86-9.62-2.58-13.46c-1.72-3.84-4.17-6.71-7.33-8.61V77.4z M462,83.91l-0.6-0.35c-2.25-1.24-4.31-1.86-6.19-1.86
	c-6.17,0-9.25,6.06-9.25,18.18c0,8.86,1.91,14.73,5.73,17.61l-0.32,0.35c-2.34-1.66-4.01-3.85-5.01-6.56
	c-1-2.71-1.49-6.37-1.49-10.99c0-13.01,3.42-19.51,10.27-19.51C458.26,80.78,460.54,81.82,462,83.91z"/>
</g>
</svg>
