<?xml version="1.0" encoding="utf-8"?>
<!-- Generator: Adobe Illustrator 24.0.2, SVG Export Plug-In . SVG Version: 6.00 Build 0)  -->
<svg version="1.1" id="레이어_1" xmlns="http://www.w3.org/2000/svg" xmlns:xlink="http://www.w3.org/1999/xlink" x="0px"
	 y="0px" viewBox="0 0 300 300" style="enable-background:new 0 0 300 300;" xml:space="preserve">
<style type="text/css">
	.st0{
	fill:#fff;
	stroke:#000000;
	stroke-miterlimit:10;
	stroke-dashArray:900px;
	stroke-dashOffset:900px;
	animation : line 3s infinite;
	}

	@keyframes line{
		100%{stroke-dashOffset:1800px;}
	}
</style>
<path class="st0" d="M153.5,126.5c0,0-31-18,0-57C153.5,69.5,185.5,111.5,153.5,126.5z"/>
<path class="st0" d="M144.64,131.18c0,0-35.32,6.14-36.64-43.66C108.01,87.51,159.52,99.12,144.64,131.18z"/>
<path class="st0" d="M140.8,137.03c0,0-23.11,27.4-56.13-9.9C84.67,127.13,131.59,102.91,140.8,137.03z"/>
<path class="st0" d="M141.18,146.5c0,0-0.09,35.85-49.36,28.5C91.82,175,112.19,126.29,141.18,146.5z"/>
<path class="st0" d="M147.66,154.29c0,0,22.97,27.52-19.5,53.56C128.16,207.86,112.46,157.44,147.66,154.29z"/>
<path class="st0" d="M158.34,154.29c0,0,35.29,6.31,19.5,53.56C177.84,207.86,133.4,179.33,158.34,154.29z"/>
<path class="st0" d="M165.82,148.5c0,0,31.09-17.85,49.36,28.5C215.18,177,162.81,183.71,165.82,148.5z"/>
<path class="st0" d="M169.2,138.03c0,0,12.34-33.65,56.13-9.9C225.33,128.13,189.53,166.94,169.2,138.03z"/>
<path class="st0" d="M163.36,130.18c0,0-12.18-33.72,36.64-43.66C199.99,86.51,197.51,139.26,163.36,130.18z"/>
<circle class="st0" cx="154" cy="142" r="25.5"/>
</svg>
